<svg width="32" height="29" viewBox="0 0 32 29" fill="none" xmlns="http://www.w3.org/2000/svg">
<g clip-path="url(#clip0_3414_1364)">
<path d="M23.154 19.4C23.2656 19.3998 23.3761 19.4218 23.4791 19.4645C23.5821 19.5073 23.6757 19.57 23.7543 19.6491C23.833 19.7282 23.8952 19.8221 23.9373 19.9254C23.9795 20.0287 24.0008 20.1393 24 20.2508V24.0956C24.0008 24.2066 23.9797 24.3167 23.9379 24.4196C23.8961 24.5225 23.8344 24.6161 23.7564 24.6952C23.6784 24.7742 23.5856 24.837 23.4832 24.8801C23.3809 24.9233 23.2711 24.9458 23.16 24.9464C23.049 24.9458 22.9392 24.9233 22.8368 24.8801C22.7345 24.837 22.6417 24.7742 22.5636 24.6952C22.4856 24.6161 22.424 24.5225 22.3822 24.4196C22.3403 24.3167 22.3192 24.2066 22.32 24.0956V22.7456C20.1348 26.4128 16.0788 29 11.7084 29C6.41643 29 1.98122 25.7348 0.0576213 20.702C-0.0231455 20.4923 -0.0180571 20.2592 0.0717845 20.0533C0.161626 19.8473 0.328988 19.685 0.537622 19.6016C0.969622 19.4324 1.45682 19.6496 1.62482 20.0876C3.30482 24.482 7.13043 27.2996 11.7084 27.2996C15.7536 27.2996 19.5324 24.6812 21.2928 21.1148L19.5276 21.1268C19.4166 21.127 19.3066 21.1052 19.204 21.0628C19.1013 21.0205 19.0081 20.9583 18.9295 20.8798C18.8509 20.8013 18.7886 20.7081 18.7461 20.6056C18.7035 20.503 18.6816 20.393 18.6816 20.282C18.6787 20.0578 18.765 19.8417 18.9213 19.681C19.0777 19.5204 19.2915 19.4284 19.5156 19.4252L23.154 19.4ZM12.294 5C17.5836 5 22.02 8.2652 23.9436 13.298C24.0244 13.5077 24.0193 13.7408 23.9295 13.9467C23.8396 14.1527 23.6723 14.315 23.4636 14.3984C23.3604 14.4387 23.2502 14.458 23.1394 14.4553C23.0287 14.4526 22.9196 14.428 22.8184 14.3827C22.7173 14.3375 22.6261 14.2727 22.5502 14.1919C22.4744 14.1112 22.4153 14.0162 22.3764 13.9124C20.6964 9.518 16.8708 6.7004 12.2928 6.7004C8.24763 6.7004 4.46882 9.3188 2.70842 12.8852L4.47362 12.8732C4.58467 12.873 4.69465 12.8948 4.79728 12.9372C4.89992 12.9795 4.99319 13.0417 5.07176 13.1202C5.15034 13.1987 5.21267 13.2919 5.2552 13.3944C5.29773 13.497 5.31962 13.607 5.31962 13.718C5.32251 13.9422 5.23629 14.1583 5.07992 14.319C4.92354 14.4796 4.70979 14.5716 4.48562 14.5748L0.846022 14.6C0.734473 14.6002 0.623997 14.5782 0.52097 14.5355C0.417942 14.4927 0.324402 14.43 0.245749 14.3509C0.167096 14.2718 0.104886 14.1779 0.0627107 14.0746C0.0205353 13.9713 -0.000771049 13.8607 2.13152e-05 13.7492V9.9044C2.13152e-05 9.434 0.375621 9.0536 0.840022 9.0536C1.30322 9.0536 1.68002 9.434 1.68002 9.9044V11.2544C3.86522 7.5872 7.92123 5 12.2916 5H12.294Z" fill="#5B5B5B"/>
<path d="M15.004 12.456V21H14.056L9.16 14.544V21H7.996V12.456H8.932L13.84 18.924V12.456H15.004Z" fill="#5B5B5B"/>
</g>
<path d="M27.1909 7.33838C27.2254 7.38834 27.2714 7.4292 27.3251 7.45742C27.3788 7.48564 27.4385 7.50039 27.4992 7.50039C27.5599 7.50039 27.6196 7.48564 27.6733 7.45742C27.727 7.4292 27.773 7.38834 27.8074 7.33838L31.1824 2.46338C31.2215 2.40715 31.2444 2.34129 31.2487 2.27295C31.2529 2.20462 31.2384 2.13642 31.2066 2.07577C31.1749 2.01512 31.1271 1.96434 31.0685 1.92895C31.0099 1.89355 30.9427 1.87489 30.8742 1.875H24.1242C24.0559 1.87528 23.9889 1.89418 23.9306 1.92966C23.8722 1.96514 23.8246 2.01586 23.7929 2.07637C23.7612 2.13688 23.7466 2.20489 23.7507 2.27307C23.7547 2.34126 23.7773 2.40706 23.8159 2.46338L27.1909 7.33838Z" fill="#49A760"/>
<defs>
<clipPath id="clip0_3414_1364">
<rect width="24" height="24" fill="white" transform="translate(0 5)"/>
</clipPath>
</defs>
</svg>
