<svg width="24" height="24" viewBox="0 0 24 24" fill="none" xmlns="http://www.w3.org/2000/svg">
<path id="Vector" d="M20.9356 7.63556C21.4909 7.63556 22.0234 7.86544 22.416 8.27463C22.8086 8.68382 23.0292 9.2388 23.0292 9.81749V14.1813C23.0292 14.76 22.8086 15.315 22.416 15.7242C22.0234 16.1334 21.4909 16.3633 20.9356 16.3633H19.8239C19.5687 18.4724 18.5838 20.412 17.0539 21.8181C15.524 23.2241 13.5544 24 11.5146 24V21.8181C13.1803 21.8181 14.7778 21.1284 15.9557 19.9009C17.1336 18.6733 17.7953 17.0083 17.7953 15.2723V8.72653C17.7953 6.99048 17.1336 5.32553 15.9557 4.09796C14.7778 2.87039 13.1803 2.18075 11.5146 2.18075C9.84885 2.18075 8.25133 2.87039 7.07347 4.09796C5.89562 5.32553 5.2339 6.99048 5.2339 8.72653V16.3633H2.09356C1.53831 16.3633 1.00581 16.1334 0.61319 15.7242C0.220571 15.315 0 14.76 0 14.1813V9.81749C0 9.2388 0.220571 8.68382 0.61319 8.27463C1.00581 7.86544 1.53831 7.63556 2.09356 7.63556H3.20524C3.46069 5.52662 4.44576 3.5873 5.97563 2.18149C7.50549 0.775677 9.47499 0 11.5146 0C13.5542 0 15.5237 0.775677 17.0536 2.18149C18.5834 3.5873 19.5685 5.52662 19.8239 7.63556H20.9356ZM7.07624 16.1287L8.18583 14.2784C9.18349 14.9298 10.3373 15.2743 11.5146 15.2723C12.6918 15.2743 13.8457 14.9298 14.8434 14.2784L15.9529 16.1287C14.6228 16.9973 13.0843 17.4567 11.5146 17.4542C9.9449 17.4567 8.40642 16.9973 7.07624 16.1287Z" fill="#5B5B5B"/>
</svg>
