<svg width="33" height="33" viewBox="0 0 33 33" fill="none" xmlns="http://www.w3.org/2000/svg">
<g id="fluent:location-live-24-regular">
<path id="Vector" d="M13.4737 2.7857C13.2007 2.76765 12.9318 2.85877 12.726 3.03901C12.5202 3.21926 12.3945 3.47386 12.3764 3.74682C12.3584 4.01978 12.4495 4.28873 12.6297 4.4945C12.81 4.70028 13.0646 4.82602 13.3375 4.84407C20.5453 5.31845 26.3093 11.0838 26.7809 18.2916C26.7898 18.4267 26.8251 18.5588 26.885 18.6803C26.9449 18.8018 27.0282 18.9103 27.13 18.9996C27.2318 19.0889 27.3502 19.1573 27.4785 19.2008C27.6067 19.2444 27.7423 19.2622 27.8775 19.2534C28.0126 19.2445 28.1447 19.2092 28.2662 19.1493C28.3877 19.0894 28.4962 19.0061 28.5855 18.9043C28.6748 18.8025 28.7432 18.6841 28.7867 18.5558C28.8303 18.4276 28.8481 18.292 28.8393 18.1568C28.2989 9.9137 21.7127 3.32745 13.4737 2.7857ZM11.6834 21.4802C12.0937 21.4802 12.4871 21.3172 12.7772 21.0271C13.0673 20.737 13.2303 20.3436 13.2303 19.9333C13.2303 19.5231 13.0673 19.1296 12.7772 18.8395C12.4871 18.5494 12.0937 18.3865 11.6834 18.3865C11.2732 18.3865 10.8797 18.5494 10.5896 18.8395C10.2995 19.1296 10.1365 19.5231 10.1365 19.9333C10.1365 20.3436 10.2995 20.737 10.5896 21.0271C10.8797 21.3172 11.2732 21.4802 11.6834 21.4802ZM10.9684 29.9365L10.4322 29.4057C9.07071 28.0524 7.70992 26.6985 6.34978 25.344C5.29301 24.287 4.57337 22.9405 4.28186 21.4746C3.99035 20.0087 4.14006 18.4893 4.71205 17.1085C5.28405 15.7277 6.25265 14.5475 7.49537 13.7172C8.7381 12.8869 10.1991 12.4437 11.6937 12.4437C13.1883 12.4437 14.6493 12.8869 15.8921 13.7172C17.1348 14.5475 18.1034 15.7277 18.6754 17.1085C19.2474 18.4893 19.3971 20.0087 19.1056 21.4746C18.8141 22.9405 18.0944 24.287 17.0377 25.344C16.4272 25.9545 15.2722 27.104 14.2712 28.0981L12.4204 29.9365C12.2272 30.1283 11.966 30.236 11.6937 30.236C11.4214 30.236 11.1602 30.1283 10.967 29.9365H10.9684ZM7.80728 16.115C6.77695 17.1454 6.19812 18.5428 6.19812 20C6.19812 21.4572 6.77695 22.8547 7.80728 23.8851C8.47003 24.5478 9.62228 25.6946 10.6109 26.6763L11.693 27.7516L12.815 26.6351C13.8174 25.6396 14.9697 24.4942 15.5788 23.8851C16.6092 22.8545 17.188 21.4568 17.1878 19.9995C17.1877 18.5422 16.6087 17.1446 15.5781 16.1143C14.5475 15.0839 13.1499 14.5051 11.6925 14.5052C10.2352 14.5053 8.83767 15.0844 7.80728 16.115ZM13.4998 7.56657C13.2274 7.54196 12.9563 7.62656 12.7463 7.80178C12.5363 7.977 12.4045 8.22848 12.3798 8.50089C12.3552 8.7733 12.4398 9.04433 12.6151 9.25436C12.7903 9.46439 13.0417 9.59621 13.3142 9.62082C15.5486 9.82587 17.6409 10.8066 19.2279 12.3929C20.815 13.9792 21.7967 16.0709 22.0028 18.3053C22.0274 18.5777 22.1592 18.8292 22.3692 19.0044C22.5793 19.1796 22.8503 19.2643 23.1227 19.2396C23.3951 19.215 23.6466 19.0832 23.8218 18.8732C23.997 18.6631 24.0816 18.3921 24.057 18.1197C23.8074 15.4041 22.6147 12.8617 20.6859 10.934C18.7571 9.00617 16.2141 7.81475 13.4984 7.56657H13.4998Z" fill="#5B5B5B"/>
</g>
</svg>
