<svg width="27" height="27" viewBox="0 0 27 27" fill="none" xmlns="http://www.w3.org/2000/svg">
<g id="fluent:history-20-regular">
<g id="Group">
<path id="Vector" d="M4.72406 2.69458L4.84556 2.70538C4.98043 2.73002 5.1046 2.79515 5.20155 2.89209C5.2985 2.98904 5.36362 3.11321 5.38826 3.24808L5.39906 3.36958V6.35578C7.01453 4.52348 9.20343 3.29296 11.6084 2.8651C14.0134 2.43724 16.4924 2.83732 18.6407 4.00002C20.789 5.16273 22.4797 7.01938 23.4367 9.26684C24.3937 11.5143 24.5606 14.0198 23.9101 16.3744C23.2595 18.7289 21.83 20.7934 19.8548 22.2307C17.8797 23.668 15.4757 24.3933 13.0352 24.2881C10.5947 24.183 8.26193 23.2536 6.41776 21.6517C4.57358 20.0498 3.32692 17.87 2.88131 15.4683C2.73704 14.585 2.67827 13.6899 2.70581 12.7953C2.72129 12.6225 2.80271 12.4623 2.93319 12.3479C3.06366 12.2335 3.23316 12.1738 3.4065 12.1811C3.57985 12.1884 3.74373 12.2621 3.86413 12.3871C3.98454 12.512 4.05221 12.6785 4.05311 12.852C4.02994 13.6448 4.08147 14.4381 4.20701 15.2212C4.60502 17.3682 5.73423 19.3111 7.40269 20.7196C9.07115 22.1282 11.1759 22.9155 13.3592 22.9477C15.5425 22.9799 17.6696 22.2551 19.3789 20.8964C21.0882 19.5377 22.2743 17.629 22.7355 15.4948C23.1967 13.3605 22.9046 11.1324 21.9088 9.18914C20.913 7.24589 19.275 5.70743 17.2733 4.83528C15.2715 3.96312 13.0294 3.81109 10.9282 4.40502C8.82705 4.99895 6.99636 6.3022 5.74736 8.09323L10.1241 8.09458L10.2456 8.10538C10.4012 8.13356 10.542 8.2155 10.6434 8.33689C10.7448 8.45828 10.8003 8.61142 10.8003 8.76958C10.8003 8.92774 10.7448 9.08088 10.6434 9.20227C10.542 9.32367 10.4012 9.4056 10.2456 9.43378L10.1241 9.44458H4.72406L4.60256 9.43378C4.46769 9.40914 4.34352 9.34401 4.24658 9.24707C4.14963 9.15012 4.0845 9.02595 4.05986 8.89108L4.04906 8.76958V3.36958L4.05986 3.24808C4.0845 3.11321 4.14963 2.98904 4.24658 2.89209C4.34352 2.79515 4.46769 2.73002 4.60256 2.70538L4.72406 2.69458ZM12.8241 8.09458L12.9456 8.10538C13.0804 8.13002 13.2046 8.19515 13.3016 8.29209C13.3985 8.38904 13.4636 8.51321 13.4883 8.64808L13.4991 8.76958V14.175H16.1991L16.3206 14.1858C16.4762 14.214 16.617 14.2959 16.7184 14.4173C16.8198 14.5387 16.8753 14.6918 16.8753 14.85C16.8753 15.0081 16.8198 15.1613 16.7184 15.2827C16.617 15.4041 16.4762 15.486 16.3206 15.5142L16.1991 15.525H12.8241L12.7026 15.5142C12.5677 15.4895 12.4435 15.4244 12.3466 15.3275C12.2496 15.2305 12.1845 15.1064 12.1599 14.9715L12.1491 14.85V8.76958L12.1599 8.64808C12.1845 8.51321 12.2496 8.38904 12.3466 8.29209C12.4435 8.19515 12.5677 8.13002 12.7026 8.10538L12.8241 8.09458Z" fill="#5B5B5B"/>
</g>
</g>
</svg>
