<svg width="37" height="33" viewBox="0 0 37 33" fill="none" xmlns="http://www.w3.org/2000/svg">
<g clip-path="url(#clip0_3414_1376)">
<path d="M19.8777 12.7308C18.526 10.4408 16.6072 8.53759 14.3061 7.2048L13.8968 6.96802L13.4874 7.2048C11.1472 8.55537 9.20393 10.4985 7.85321 12.8386C6.50248 15.1787 5.7919 17.8333 5.79297 20.5353C5.79297 20.7113 5.79604 20.8901 5.80201 21.0667C5.88336 23.4608 6.79894 25.4754 8.4498 26.8925C9.71309 27.977 11.3335 28.6391 13.0794 28.797V31.6209H14.7145V18.5404H13.0792V27.1515C10.3168 26.8314 7.56737 24.88 7.436 21.0111C7.43059 20.8529 7.42783 20.6928 7.42783 20.5353C7.43269 18.2022 8.02853 15.9084 9.15974 13.8679C10.2909 11.8275 11.9206 10.1068 13.8968 8.86658C15.8728 10.1068 17.5025 11.8275 18.6337 13.868C19.7648 15.9084 20.3606 18.2022 20.3655 20.5353C20.3655 20.6928 20.3627 20.8529 20.3573 21.0111C20.2522 24.1061 18.4715 25.9739 16.3491 26.7612V28.4917C17.4505 28.1795 18.4718 27.6341 19.3437 26.8924C20.9946 25.4753 21.9102 23.4607 21.9915 21.0666C21.9975 20.89 22.0005 20.7112 22.0005 20.5352C22.002 17.7909 21.269 15.0962 19.8777 12.7308Z" fill="#5B5B5B"/>
</g>
<path d="M30.405 6.45346C29.0534 4.16342 27.1345 2.26024 24.8335 0.927452L24.4241 0.690674L24.0147 0.927452C21.6745 2.27802 19.7313 4.22112 18.3806 6.56124C17.0298 8.90136 16.3192 11.556 16.3203 14.2579C16.3203 14.4339 16.3234 14.6127 16.3294 14.7893C16.4107 17.1835 17.3263 19.198 18.9771 20.6152C20.2404 21.6997 21.8609 22.3617 23.6068 22.5196V25.3436H25.2418V12.263H23.6066V20.8741C20.8441 20.5541 18.0947 18.6026 17.9633 14.7337C17.9579 14.5756 17.9552 14.4155 17.9552 14.2579C17.96 11.9249 18.5559 9.63107 19.6871 7.59059C20.8183 5.55011 22.448 3.82947 24.4241 2.58924C26.4002 3.8295 28.0298 5.55015 29.161 7.59062C30.2922 9.6311 30.888 11.9249 30.8928 14.2579C30.8928 14.4155 30.8901 14.5756 30.8846 14.7338C30.7796 17.8288 28.9989 19.6966 26.8765 20.4839V22.2143C27.9778 21.9022 28.9991 21.3568 29.8711 20.6151C31.5219 19.1979 32.4375 17.1834 32.5188 14.7893C32.5248 14.6127 32.5279 14.4339 32.5279 14.2579C32.5293 11.5136 31.7964 8.81889 30.405 6.45346Z" fill="#5B5B5B"/>
<defs>
<clipPath id="clip0_3414_1376">
<rect width="26.161" height="26.161" fill="white" transform="translate(0 6.27734)"/>
</clipPath>
</defs>
</svg>
