<svg width="24" height="24" viewBox="0 0 24 24" fill="none" xmlns="http://www.w3.org/2000/svg">
<g id="clarity:bell-outline-badged">
<path id="Vector" d="M12.0015 22.8534C12.4215 22.8437 12.8245 22.6858 13.1392 22.4077C13.454 22.1295 13.6603 21.749 13.7215 21.3334H10.2148C10.2778 21.7602 10.4937 22.1497 10.8224 22.4293C11.151 22.7089 11.5701 22.8596 12.0015 22.8534Z" fill="white"/>
<path id="Vector_2" d="M21.6751 18.5532C21.0323 17.9801 20.4694 17.3231 20.0018 16.5999C19.4913 15.6016 19.1853 14.5114 19.1018 13.3932V10.0999C19.0991 9.69986 19.0634 9.30073 18.9952 8.90656C18.4704 8.80167 17.9661 8.61256 17.5018 8.34656C17.6788 8.91646 17.7687 9.50982 17.7685 10.1066V13.3999C17.8502 14.7639 18.2254 16.0942 18.8685 17.2999C19.3288 18.0292 19.8749 18.7007 20.4951 19.2999H3.42182C4.04209 18.7007 4.58822 18.0292 5.04849 17.2999C5.69156 16.0942 6.06678 14.7639 6.14849 13.3999V10.0999C6.14498 9.32835 6.29369 8.5637 6.58612 7.84971C6.87854 7.13572 7.30892 6.48643 7.85263 5.939C8.39634 5.39158 9.04269 4.95678 9.75467 4.6595C10.4666 4.36223 11.2303 4.20831 12.0018 4.20656C13.131 4.20746 14.2348 4.5414 15.1752 5.16656C15.0715 4.78589 15.0133 4.39427 15.0018 3.99989V3.57989C14.3057 3.23747 13.5579 3.01222 12.7885 2.91323V2.07323C12.7885 1.83718 12.6947 1.61081 12.5278 1.4439C12.3609 1.277 12.1345 1.18323 11.8985 1.18323C11.6624 1.18323 11.4361 1.277 11.2692 1.4439C11.1023 1.61081 11.0085 1.83718 11.0085 2.07323V2.94656C9.28563 3.1896 7.70887 4.04772 6.5693 5.36252C5.42973 6.67731 4.80431 8.35999 4.80849 10.0999V13.3932C4.72499 14.5114 4.41901 15.6016 3.90849 16.5999C3.44908 17.3215 2.89529 17.9784 2.26182 18.5532C2.19071 18.6157 2.13372 18.6926 2.09463 18.7788C2.05555 18.865 2.03528 18.9586 2.03516 19.0532V19.9599C2.03516 20.1367 2.10539 20.3063 2.23042 20.4313C2.35544 20.5563 2.52501 20.6266 2.70182 20.6266H21.2352C21.412 20.6266 21.5815 20.5563 21.7066 20.4313C21.8316 20.3063 21.9018 20.1367 21.9018 19.9599V19.0532C21.9017 18.9586 21.8814 18.865 21.8423 18.7788C21.8033 18.6926 21.7463 18.6157 21.6751 18.5532Z" fill="white"/>
</g>
</svg>
