<svg width="34" height="24" viewBox="0 0 34 24" fill="none" xmlns="http://www.w3.org/2000/svg">
<rect width="34" height="24" rx="3" fill="#ECECEC"/>
<path opacity="0.5" d="M20.7286 17.6069C19.6197 17.6071 18.5357 17.2784 17.6136 16.6625C16.6915 16.0465 15.9727 15.171 15.5482 14.1466C15.1237 13.1221 15.0125 11.9949 15.2287 10.9072C15.4448 9.81962 15.9787 8.82052 16.7627 8.0363C17.5467 7.25208 18.5456 6.71795 19.6331 6.50145C20.7207 6.28495 21.848 6.39582 22.8726 6.82002C23.8971 7.24422 24.7729 7.96271 25.3891 8.88463C26.0053 9.80655 26.3343 10.8905 26.3344 11.9994C26.3329 13.4858 25.7418 14.9116 24.6909 15.9627C23.6399 17.0138 22.215 17.6051 20.7286 17.6069Z" fill="#FF9800"/>
<path d="M13.2707 17.6069C12.1618 17.6069 11.0778 17.2781 10.1558 16.662C9.23382 16.0459 8.5152 15.1703 8.09085 14.1458C7.66649 13.1213 7.55546 11.994 7.7718 10.9064C7.98813 9.81883 8.52211 8.81982 9.30622 8.03571C10.0903 7.25161 11.0893 6.71762 12.1769 6.50129C13.2645 6.28495 14.3918 6.39598 15.4163 6.82034C16.4408 7.24469 17.3164 7.96331 17.9325 8.88533C18.5486 9.80734 18.8774 10.8913 18.8774 12.0002C18.8759 13.4867 18.2847 14.9119 17.2335 15.963C16.1824 17.0141 14.7572 17.6053 13.2707 17.6069Z" fill="#EC0101"/>
</svg>
