<svg width="17" height="11" viewBox="0 0 17 11" fill="none" xmlns="http://www.w3.org/2000/svg">
<path id="Vector" d="M7.3971 10.4986L0.365579 2.43792C-0.464247 1.48951 0.21017 5.40673e-07 1.46957 5.40673e-07H15.5326C15.8145 -0.00024182 16.0904 0.0810009 16.3274 0.234C16.5644 0.386999 16.7524 0.605269 16.8689 0.862671C16.9854 1.12007 17.0255 1.4057 16.9843 1.68533C16.9431 1.96497 16.8224 2.22677 16.6366 2.43939L9.60508 10.4972C9.46747 10.6551 9.29776 10.7817 9.10735 10.8684C8.91694 10.9551 8.71023 11 8.50109 11C8.29196 11 8.08525 10.9551 7.89484 10.8684C7.70443 10.7817 7.53472 10.6551 7.3971 10.4972V10.4986Z" fill="#EF991B"/>
</svg>
