<svg width="17" height="11" viewBox="0 0 17 11" fill="none" xmlns="http://www.w3.org/2000/svg">
<path id="Vector" d="M7.3971 0.501374L0.365579 8.56208C-0.464247 9.51049 0.21017 11 1.46957 11H15.5326C15.8145 11.0002 16.0904 10.919 16.3274 10.766C16.5644 10.613 16.7524 10.3947 16.8689 10.1373C16.9854 9.87993 17.0255 9.5943 16.9843 9.31467C16.9431 9.03503 16.8224 8.77323 16.6366 8.56061L9.60508 0.502846C9.46747 0.344911 9.29776 0.21833 9.10735 0.1316C8.91694 0.0448713 8.71023 0 8.50109 0C8.29196 0 8.08525 0.0448713 7.89484 0.1316C7.70443 0.21833 7.53472 0.344911 7.3971 0.502846V0.501374Z" fill="#49A760"/>
</svg>
