<svg width="83" height="30" viewBox="0 0 83 30" fill="none" xmlns="http://www.w3.org/2000/svg">
<mask id="mask0_1958_1761" style="mask-type:alpha" maskUnits="userSpaceOnUse" x="0" y="0" width="83" height="18">
<path d="M9.91828 2.3947H2.76171V5.26651H9.33108V7.61533H2.76171V11.0927H10.2486V13.5241H0V0H9.91828V2.3947Z" fill="black"/>
<path d="M11.2578 13.5241L14.671 8.45944L11.4047 3.54159H14.6068L16.2766 6.44092L17.9098 3.54159H21.0202L17.7355 8.41357L21.1486 13.5241H17.8914L16.1665 10.5238L14.4324 13.5241H11.2578Z" fill="black"/>
<path d="M29.5897 8.52367C29.5897 7.75296 29.4123 7.07095 29.0575 6.47762C28.7089 5.8843 28.14 5.58764 27.351 5.58764C26.4029 5.58764 25.7515 6.03722 25.3967 6.93638C25.2132 7.41348 25.1214 8.01904 25.1214 8.75305C25.1214 9.91523 25.4303 10.7318 26.0481 11.2028C26.4151 11.4781 26.8494 11.6157 27.351 11.6157C28.0789 11.6157 28.6324 11.3343 29.0117 10.7716C29.397 10.2088 29.5897 9.45953 29.5897 8.52367ZM28.1033 3.30304C29.2716 3.30304 30.2595 3.73427 31.0669 4.59673C31.8804 5.45919 32.2872 6.72535 32.2872 8.39522C32.2872 10.1568 31.8896 11.4995 31.0944 12.4231C30.3054 13.3467 29.2869 13.8085 28.0391 13.8085C27.2439 13.8085 26.5833 13.6097 26.0573 13.2121C25.7698 12.9919 25.4884 12.6708 25.2132 12.2488V17.4602H22.6258V3.52324H25.1306V5.00043C25.412 4.56614 25.7117 4.22361 26.0298 3.97282C26.6109 3.5263 27.302 3.30304 28.1033 3.30304Z" fill="black"/>
<path d="M38.1317 5.41331C37.5262 5.41331 37.0552 5.60293 36.7188 5.98217C36.3885 6.3614 36.1805 6.87521 36.0948 7.52358H40.1594C40.1166 6.83239 39.9056 6.30941 39.5263 5.95464C39.1532 5.59375 38.6883 5.41331 38.1317 5.41331ZM38.1317 3.25716C38.9636 3.25716 39.7129 3.41314 40.3796 3.72509C41.0463 4.03705 41.5969 4.52944 42.0311 5.20228C42.4226 5.79561 42.6765 6.48374 42.7927 7.26668C42.86 7.72544 42.8875 8.38604 42.8752 9.2485H36.0306C36.0673 10.2516 36.3823 10.9551 36.9757 11.3588C37.3365 11.6096 37.7708 11.735 38.2785 11.735C38.8168 11.735 39.2541 11.582 39.5906 11.2762C39.7741 11.111 39.9362 10.8817 40.0768 10.5881H42.7468C42.6795 11.1814 42.3706 11.7839 41.8201 12.3956C40.9638 13.3681 39.7649 13.8544 38.2235 13.8544C36.9512 13.8544 35.8288 13.4446 34.8562 12.6249C33.8836 11.8053 33.3974 10.4718 33.3974 8.6246C33.3974 6.89356 33.8347 5.56623 34.7094 4.6426C35.5902 3.71897 36.731 3.25716 38.1317 3.25716Z" fill="black"/>
<path d="M50.619 7.1107C50.5701 6.73758 50.4447 6.40116 50.2429 6.10144C49.9493 5.69774 49.4936 5.49589 48.8758 5.49589C47.995 5.49589 47.3925 5.93323 47.0683 6.80793C46.897 7.2728 46.8114 7.89059 46.8114 8.6613C46.8114 9.3953 46.897 9.98557 47.0683 10.4321C47.3802 11.264 47.9674 11.6799 48.8299 11.6799C49.4416 11.6799 49.8759 11.5148 50.1328 11.1844C50.3897 10.8541 50.5456 10.426 50.6007 9.89993H53.2706C53.2095 10.6951 52.922 11.4475 52.4082 12.157C51.5885 13.3008 50.3744 13.8728 48.7657 13.8728C47.157 13.8728 45.9734 13.3956 45.2149 12.4414C44.4564 11.4872 44.0772 10.2486 44.0772 8.72552C44.0772 7.00672 44.4962 5.67021 45.3342 4.716C46.1722 3.76179 47.3282 3.28469 48.8024 3.28469C50.0563 3.28469 51.0808 3.56606 51.876 4.1288C52.6773 4.69154 53.1514 5.6855 53.2982 7.1107H50.619Z" fill="black"/>
<path d="M54.078 5.47754V3.61499H55.4727V0.825759H58.06V3.61499H59.684V5.47754H58.06V10.7624C58.06 11.1722 58.112 11.4291 58.216 11.5331C58.32 11.631 58.6381 11.6799 59.1702 11.6799C59.2497 11.6799 59.3323 11.6799 59.418 11.6799C59.5097 11.6738 59.5984 11.6677 59.684 11.6616V13.6159L58.4454 13.6617C57.2098 13.7045 56.3657 13.4905 55.9131 13.0195C55.6195 12.7197 55.4727 12.2579 55.4727 11.634V5.47754H54.078Z" fill="black"/>
<path d="M65.8497 11.6799C66.6143 11.6799 67.2015 11.4077 67.6113 10.8633C68.0211 10.3189 68.2261 9.54516 68.2261 8.54202C68.2261 7.53888 68.0211 6.76817 67.6113 6.22989C67.2015 5.6855 66.6143 5.41331 65.8497 5.41331C65.0851 5.41331 64.4948 5.6855 64.0789 6.22989C63.6691 6.76817 63.4642 7.53888 63.4642 8.54202C63.4642 9.54516 63.6691 10.3189 64.0789 10.8633C64.4948 11.4077 65.0851 11.6799 65.8497 11.6799ZM70.9694 8.54202C70.9694 10.01 70.5474 11.267 69.7032 12.313C68.8591 13.3528 67.5777 13.8728 65.8589 13.8728C64.1401 13.8728 62.8586 13.3528 62.0145 12.313C61.1704 11.267 60.7483 10.01 60.7483 8.54202C60.7483 7.09847 61.1704 5.8476 62.0145 4.7894C62.8586 3.73121 64.1401 3.20211 65.8589 3.20211C67.5777 3.20211 68.8591 3.73121 69.7032 4.7894C70.5474 5.8476 70.9694 7.09847 70.9694 8.54202Z" fill="black"/>
<path d="M77.3369 11.6799C78.1015 11.6799 78.6887 11.4077 79.0985 10.8633C79.5084 10.3189 79.7133 9.54516 79.7133 8.54202C79.7133 7.53888 79.5084 6.76817 79.0985 6.22989C78.6887 5.6855 78.1015 5.41331 77.3369 5.41331C76.5723 5.41331 75.9821 5.6855 75.5661 6.22989C75.1563 6.76817 74.9514 7.53888 74.9514 8.54202C74.9514 9.54516 75.1563 10.3189 75.5661 10.8633C75.9821 11.4077 76.5723 11.6799 77.3369 11.6799ZM82.4566 8.54202C82.4566 10.01 82.0346 11.267 81.1905 12.313C80.3464 13.3528 79.0649 13.8728 77.3461 13.8728C75.6273 13.8728 74.3458 13.3528 73.5017 12.313C72.6576 11.267 72.2356 10.01 72.2356 8.54202C72.2356 7.09847 72.6576 5.8476 73.5017 4.7894C74.3458 3.73121 75.6273 3.20211 77.3461 3.20211C79.0649 3.20211 80.3464 3.73121 81.1905 4.7894C82.0346 5.8476 82.4566 7.09847 82.4566 8.54202Z" fill="black"/>
</mask>
<g mask="url(#mask0_1958_1761)">
<path d="M88.6816 13.9939C88.6816 40.1977 67.4392 61.4402 41.2353 61.4402C15.0315 61.4402 -6.21094 40.1977 -6.21094 13.9939C-6.21094 -12.21 15.0315 -33.4524 41.2353 -33.4524C67.4392 -33.4524 88.6816 -12.21 88.6816 13.9939Z" fill="url(#paint0_linear_1958_1761)"/>
</g>
<mask id="mask1_1958_1761" style="mask-type:alpha" maskUnits="userSpaceOnUse" x="51" y="21" width="32" height="9">
<path d="M51.2695 21.2686H56.7501V22.6269H52.8744V24.4048H56.2676V25.7474H52.8744V28.9886H51.2695V21.2686Z" fill="black"/>
<path d="M60.8671 26.209C60.7727 26.2684 60.6766 26.3173 60.5787 26.3558C60.4843 26.3908 60.3531 26.424 60.1853 26.4554L59.8497 26.5184C59.535 26.5743 59.3095 26.6425 59.1731 26.7229C58.9424 26.8593 58.827 27.0708 58.827 27.3575C58.827 27.6128 58.8969 27.7981 59.0368 27.9134C59.1801 28.0253 59.3532 28.0813 59.556 28.0813C59.8776 28.0813 60.1731 27.9869 60.4423 27.7981C60.715 27.6093 60.8566 27.2649 60.8671 26.7649V26.209ZM59.9598 25.5114C60.236 25.4765 60.4336 25.4328 60.5524 25.3803C60.7657 25.2894 60.8724 25.1478 60.8724 24.9555C60.8724 24.7212 60.7902 24.5604 60.6259 24.473C60.465 24.3821 60.2273 24.3366 59.9126 24.3366C59.5595 24.3366 59.3095 24.424 59.1626 24.5989C59.0577 24.7282 58.9878 24.903 58.9528 25.1233H57.5106C57.5421 24.6233 57.6819 24.2125 57.9301 23.8908C58.3252 23.3874 59.0035 23.1356 59.965 23.1356C60.5909 23.1356 61.1468 23.2597 61.6328 23.508C62.1188 23.7562 62.3618 24.2248 62.3618 24.9135V27.5358C62.3618 27.7176 62.3653 27.9379 62.3723 28.1966C62.3828 28.3924 62.4125 28.5253 62.4615 28.5952C62.5104 28.6652 62.5838 28.7229 62.6817 28.7683V28.9886H61.0559C61.0105 28.8732 60.979 28.7648 60.9615 28.6634C60.944 28.562 60.93 28.4466 60.9196 28.3173C60.7133 28.541 60.4755 28.7316 60.2063 28.8889C59.8846 29.0742 59.521 29.1669 59.1154 29.1669C58.598 29.1669 58.1697 29.02 57.8305 28.7263C57.4948 28.4292 57.327 28.0096 57.327 27.4676C57.327 26.7649 57.598 26.2562 58.1399 25.9415C58.4371 25.7702 58.8742 25.6478 59.4511 25.5744L59.9598 25.5114Z" fill="black"/>
<path d="M66.7987 23.1356C66.8267 23.1356 66.8494 23.1374 66.8669 23.1409C66.8879 23.1409 66.9316 23.1426 66.998 23.1461V24.6775C66.9036 24.667 66.8197 24.6601 66.7463 24.6566C66.6729 24.6531 66.6134 24.6513 66.568 24.6513C65.9666 24.6513 65.5628 24.8471 65.3565 25.2387C65.2411 25.459 65.1834 25.7981 65.1834 26.2562V28.9886H63.6782V23.272H65.1047V24.2685C65.3355 23.8873 65.5365 23.6269 65.7079 23.487C65.9876 23.2528 66.3512 23.1356 66.7987 23.1356Z" fill="black"/>
<path d="M74.267 23.1461C74.5188 23.1461 74.767 23.1951 75.0118 23.293C75.2565 23.3909 75.4785 23.5622 75.6778 23.8069C75.8386 24.0062 75.947 24.251 76.003 24.5412C76.0379 24.7335 76.0554 25.0149 76.0554 25.3856L76.0449 28.9886H74.5135V25.3488C74.5135 25.1321 74.4786 24.9537 74.4086 24.8139C74.2758 24.5482 74.031 24.4153 73.6744 24.4153C73.2618 24.4153 72.9769 24.5866 72.8195 24.9293C72.7391 25.1111 72.6989 25.3296 72.6989 25.5848V28.9886H71.1937V25.5848C71.1937 25.2457 71.1587 24.9992 71.0888 24.8454C70.9629 24.5691 70.7164 24.431 70.3493 24.431C69.9228 24.431 69.6361 24.5691 69.4892 24.8454C69.4088 25.0027 69.3686 25.237 69.3686 25.5481V28.9886H67.8529V23.2825H69.3056V24.1164C69.491 23.8192 69.6658 23.6076 69.8301 23.4818C70.1203 23.258 70.4962 23.1461 70.9577 23.1461C71.3947 23.1461 71.7479 23.2423 72.0171 23.4346C72.2339 23.6129 72.3982 23.8419 72.5101 24.1216C72.7059 23.786 72.9489 23.5395 73.2391 23.3821C73.5468 23.2248 73.8894 23.1461 74.267 23.1461Z" fill="black"/>
<path d="M78.599 27.1635C78.6305 27.4292 78.6987 27.618 78.8036 27.7299C78.9889 27.9292 79.3315 28.0288 79.8315 28.0288C80.1252 28.0288 80.3577 27.9851 80.5291 27.8977C80.7039 27.8103 80.7913 27.6792 80.7913 27.5044C80.7913 27.3365 80.7214 27.2089 80.5815 27.1215C80.4416 27.0341 79.9224 26.8838 79.0239 26.6705C78.377 26.5096 77.9207 26.3086 77.655 26.0673C77.3893 25.8296 77.2564 25.4869 77.2564 25.0394C77.2564 24.5115 77.4627 24.0587 77.8753 23.6811C78.2914 23.3 78.8753 23.1094 79.627 23.1094C80.3402 23.1094 80.9206 23.2528 81.3682 23.5395C81.8192 23.8227 82.0779 24.3139 82.1444 25.0132H80.6497C80.6287 24.8209 80.5745 24.6688 80.4871 24.5569C80.3228 24.3541 80.0431 24.2527 79.648 24.2527C79.3228 24.2527 79.0903 24.3034 78.9504 24.4048C78.8141 24.5062 78.7459 24.6251 78.7459 24.7614C78.7459 24.9328 78.8193 25.0569 78.9662 25.1338C79.113 25.2142 79.6322 25.3523 80.5238 25.5481C81.1182 25.688 81.564 25.8995 81.8612 26.1827C82.1549 26.4694 82.3017 26.8278 82.3017 27.2579C82.3017 27.8243 82.0902 28.2876 81.6671 28.6477C81.2476 29.0043 80.5972 29.1826 79.7161 29.1826C78.8176 29.1826 78.1533 28.9938 77.7232 28.6162C77.2966 28.2351 77.0834 27.7509 77.0834 27.1635H78.599Z" fill="black"/>
</mask>
<g mask="url(#mask1_1958_1761)">
<path d="M85.8977 25.2294C85.8977 35.907 77.2418 44.563 66.5641 44.563C55.8864 44.563 47.2305 35.907 47.2305 25.2294C47.2305 14.5517 55.8864 5.89575 66.5641 5.89575C77.2418 5.89575 85.8977 14.5517 85.8977 25.2294Z" fill="url(#paint1_linear_1958_1761)"/>
</g>
<defs>
<linearGradient id="paint0_linear_1958_1761" x1="-6.21094" y1="13.9939" x2="88.6816" y2="13.9939" gradientUnits="userSpaceOnUse">
<stop stop-color="#44A08D"/>
<stop offset="1" stop-color="#093637"/>
</linearGradient>
<linearGradient id="paint1_linear_1958_1761" x1="47.2305" y1="25.2294" x2="85.8977" y2="25.2294" gradientUnits="userSpaceOnUse">
<stop stop-color="#44A08D"/>
<stop offset="1" stop-color="#093637"/>
</linearGradient>
</defs>
</svg>
